# xmcd
#
# Track frame offsets:
#	150
#	18703
#	36952
#	54390
#	71652
#	86593
#	102388
#	116537
#	132246
#	144135
#	158033
#	176205
#	190494
#
# Disc length: 2766 seconds
#
# Revision: 0
# Processed by: cddbd v1.5.2PL0 Copyright (c) Steve Scherf et al.
# Submitted via: EasyCDDAExtractor 2010.6.0.0
#
DISCID=b60acc0d
DTITLE=Näkemysero - Mä oon miettiny paljon
DYEAR=2011
DGENRE=Hip-Hop
TTITLE0=Tervetuloo
TTITLE1=Vapaa kasvatus
TTITLE2=Tappavatauti
TTITLE3=Ei tarvi pelkää
TTITLE4=Näkemyseroja
TTITLE5=Abrakadabra
TTITLE6=Uusinta roskaa
TTITLE7=Kuilun pohjalla
TTITLE8=Ihan järjetön rapula
TTITLE9=Huhupuheet
TTITLE10=Mä oon miettiny paljon
TTITLE11=Varokaa vaaraa
TTITLE12=Mitäänsanomattomuus (feat. Juuso and Jyrbä)
EXTD=
EXTT0=
EXTT1=
EXTT2=
EXTT3=
EXTT4=
EXTT5=
EXTT6=
EXTT7=
EXTT8=
EXTT9=
EXTT10=
EXTT11=
EXTT12=
PLAYORDER=
